{"extensions":{"PTC_onshape_metadata":{"documentId":"27b05cb24ac3696df3207f4b","elementId":"6bb32ec57cb34cb09b47f813"}},"extensionsUsed":["PTC_onshape_metadata"],"accessors":[{"bufferView":0,"byteOffset":0,"componentType":5126,"count":80,"type":"VEC3","max":[0.29975247,0.16165625,0.041275],"min":[0.14735247,-3.469447E-18,0.0]},{"bufferView":1,"byteOffset":0,"componentType":5126,"count":80,"type":"VEC3"},{"bufferView":2,"byteOffset":0,"componentType":5123,"count":138,"type":"SCALAR"}],"asset":{"version":"2.0"},"buffers":[{"uri":"data:application/octet-stream;base64,","byteLength":2196}],"bufferViews":[{"buffer":0,"byteOffset":0,"byteLength":960},{"buffer":0,"byteOffset":960,"byteLength":960},{"buffer":0,"byteOffset":1920,"byteLength":276}],"materials":[{"pbrMetallicRoughness":{"baseColorFactor":[0.7372549,0.9372549,0.91764706,1.0],"metallicFactor":0.0},"alphaMode":"OPAQUE","doubleSided":false}],"meshes":[{"primitives":[{"attributes":{"POSITION":0,"NORMAL":1},"indices":2,"material":0,"mode":4}]}],"nodes":[{"extensions":{"PTC_onshape_metadata":{"id":["JYD"]}},"name":"Cap","mesh":0}],"scene":0,"scenes":[{"nodes":[0]}]}