{"extensions":{"PTC_onshape_metadata":{"documentId":"27b05cb24ac3696df3207f4b","elementId":"6bb32ec57cb34cb09b47f813"}},"extensionsUsed":["PTC_onshape_metadata"],"accessors":[{"bufferView":0,"byteOffset":0,"componentType":5126,"count":334,"type":"VEC3","max":[-0.012910356,0.05752234,1.3716],"min":[-0.11451036,-0.044077657,0.0]},{"bufferView":1,"byteOffset":0,"componentType":5126,"count":334,"type":"VEC3"},{"bufferView":2,"byteOffset":0,"componentType":5123,"count":960,"type":"SCALAR"}],"asset":{"version":"2.0"},"buffers":[{"uri":"data:application/octet-stream;base64,","byteLength":9936}],"bufferViews":[{"buffer":0,"byteOffset":0,"byteLength":4008},{"buffer":0,"byteOffset":4008,"byteLength":4008},{"buffer":0,"byteOffset":8016,"byteLength":1920}],"materials":[{"pbrMetallicRoughness":{"baseColorFactor":[0.7372549,0.9372549,0.91764706,1.0],"metallicFactor":0.0},"alphaMode":"OPAQUE","doubleSided":false}],"meshes":[{"primitives":[{"attributes":{"POSITION":0,"NORMAL":1},"indices":2,"material":0,"mode":4}]}],"nodes":[{"extensions":{"PTC_onshape_metadata":{"id":["JHD"]}},"name":"Post Sleeve","mesh":0}],"scene":0,"scenes":[{"nodes":[0]}]}